<?xml version="1.0" encoding="UTF-8"?><svg id="Layer_2" xmlns="http://www.w3.org/2000/svg" viewBox="0 0 222.72 156.49"><defs><style>.cls-1{fill:#fd5d23;}.cls-1,.cls-2{stroke-width:0px;}.cls-2{fill:#fff;}</style></defs><g id="Layer_1-2"><polygon class="cls-2" points="216.78 154.56 216.78 137.53 214.92 137.53 214.92 156.29 216.24 156.29 216.78 156.29 222.72 156.29 222.72 154.56 216.78 154.56"/><polygon class="cls-2" points="198.85 139.26 198.85 137.53 192.66 137.53 192.08 137.53 190.8 137.53 190.8 156.29 192.08 156.29 192.66 156.29 198.85 156.29 198.85 154.56 192.66 154.56 192.66 147.84 198.21 147.84 198.21 146.11 192.66 146.11 192.66 139.26 198.85 139.26"/><polygon class="cls-2" points="165.03 137.53 166.99 137.53 170.08 154.18 173.16 137.53 175.12 137.53 171.33 156.29 168.82 156.29 165.03 137.53"/><path class="cls-2" d="m149.48,156.29h2.06l-4.33-18.76h-2.25l-4.33,18.76h2.07l.93-4.55h4.93l.93,4.55Zm-5.51-6.28l2.11-10.4,2.12,10.4h-4.23Z"/><path class="cls-2" d="m125.78,156.29l-2.76-8.41s.06-.02.09-.04c.7-.34,1.23-.85,1.59-1.5.37-.66.55-1.45.55-2.37v-2.19c0-.89-.18-1.66-.55-2.3-.37-.64-.9-1.13-1.59-1.46-.7-.33-1.54-.5-2.51-.5h-4.49v18.78h1.86v-7.94h2.63c.24,0,.48-.01.7-.03l2.33,7.97h2.15Zm-7.82-9.66v-7.38h2.76c.56,0,1.04.11,1.44.33.4.22.71.54.92.95.21.42.32.92.32,1.51v1.93c0,.56-.11,1.04-.32,1.44-.21.4-.52.7-.92.91-.4.21-.88.31-1.44.31h-2.76Z"/><polygon class="cls-2" points="100.16 137.53 91.05 137.53 91.05 139.26 94.68 139.26 94.68 156.29 96.54 156.29 96.54 139.26 100.16 139.26 100.16 137.53"/><path class="cls-1" d="m68.61,156.49c-.9,0-1.77-.09-2.63-.27-.85-.18-1.66-.44-2.41-.79-.75-.35-1.43-.77-2.02-1.26l1.64-2.92c.72.59,1.56,1.05,2.51,1.38.94.32,1.92.48,2.92.48,1.15,0,2.04-.19,2.68-.59.64-.39.96-.94.96-1.66h0c0-.52-.14-.91-.43-1.2-.28-.29-.65-.51-1.11-.64-.45-.14-1.04-.26-1.75-.37-.03,0-.05-.01-.07-.01-.02,0-.05,0-.08-.01l-.28-.04c-1.26-.2-2.3-.45-3.12-.74-.82-.3-1.53-.82-2.1-1.56-.58-.74-.87-1.8-.87-3.17h0c0-1.22.27-2.26.81-3.12.54-.86,1.33-1.51,2.36-1.97,1.03-.45,2.28-.68,3.74-.68.67,0,1.36.08,2.06.23.7.15,1.39.38,2.06.67.67.29,1.31.65,1.91,1.06l-1.5,2.99c-.72-.5-1.48-.88-2.26-1.16-.79-.28-1.54-.41-2.26-.41-1.09,0-1.93.18-2.52.53-.59.36-.89.86-.89,1.51h0c0,.56.15.98.47,1.29.31.31.69.55,1.15.69.46.15,1.1.3,1.92.46.04,0,.07.02.1.02.04,0,.07,0,.11.02.05,0,.1.02.15.04.05,0,.1.02.15.03,1.19.23,2.18.52,2.97.85.8.33,1.46.86,1.99,1.6.53.74.8,1.74.8,3.01v.03c0,1.19-.28,2.22-.84,3.07-.56.85-1.37,1.5-2.44,1.95-1.07.44-2.36.67-3.86.67Z"/><path class="cls-1" d="m45.36,145.8v3.66c0,1.4-.28,2.62-.85,3.69-.56,1.06-1.36,1.88-2.39,2.46-1.03.58-2.23.87-3.59.87s-2.57-.27-3.62-.82c-1.04-.55-1.85-1.32-2.42-2.32-.57-1-.86-2.15-.86-3.47v-5.54c0-1.39.28-2.62.85-3.68.56-1.06,1.36-1.88,2.39-2.46,1.03-.58,2.23-.87,3.59-.87,1.12,0,2.15.23,3.1.69.95.46,1.74,1.11,2.36,1.96.63.84,1.06,1.82,1.29,2.93h-3.82c-.13-.4-.34-.74-.64-1.03-.3-.29-.65-.51-1.05-.66-.4-.15-.81-.23-1.24-.23-.63,0-1.18.14-1.66.41-.48.28-.85.66-1.11,1.18-.26.51-.39,1.09-.39,1.75v5.54c0,.59.13,1.1.4,1.55.26.44.64.79,1.14,1.03.49.24,1.06.36,1.7.36s1.19-.13,1.67-.39c.48-.26.85-.64,1.1-1.14.26-.5.39-1.09.39-1.77v-.31h-2.84v-3.41h6.51Z"/><path class="cls-1" d="m12.79,156.29h3.8l-7.17-18.76h-2.24l-7.17,18.76h3.81l1.05-3.01h6.87l1.05,3.01Zm-6.73-6.41l2.24-6.4,2.24,6.4h-4.49Z"/><path class="cls-1" d="m161.2,75.8l1.39,3.29c.32-.36.6-.73.83-1.14-.5-1.18-1.28-1.76-2.22-2.16Z"/><polygon class="cls-1" points="109.45 99.72 113.74 109.9 136.56 99.72 109.45 99.72"/><path class="cls-1" d="m105.46,93.79c-1.85-2.04-7.52-5.11-9.98-8.05,3.36-1.5,3.61-.89,6.63-.86-3.91-1.27-5.24.26-7.6-.11,3.03-4.66,11.68.24,15.62,1.22l5.02,1.68-4.14,3.07c31.02-14.25,12.08-10.12,34.43-7.67-.33.03-15.2-4.43-17.31-5.13-3.69-1.22-15.07-4.33-17.14-6.86,3.46-3.76,15.89-1.48,20.06-.76,2.18.38,7.92,1.57,9.73,1.61,3.74.07,5.56-3.85,9.98-2.19l-3.08,2.45c1.25,2.49.15-.32,1.16,1.63l.46,1.18c.05.09.1.28.16.37.05.08.14.25.2.31,1.53,1.46,2.67-.05,3.64-.91-.38,3.43-3.8,4.46-7.44,5.68,7.76-1,7.2-2.8,8.86-4.66l-1-2.38c-.19-.24-.4-.61-.74-1.21.04-.06.1-.11.15-.17l-3.42-8.11h-74.58l-13.03,31.04h41.88c.55-.42,1.06-.82,1.47-1.16Z"/><polygon class="cls-1" points="62.94 3.21 5.48 132.64 39.49 132.64 78.51 40.42 62.94 3.21"/><polygon class="cls-1" points="124.66 59.15 98.38 0 67.63 .51 92.35 59.15 124.66 59.15"/><path class="cls-1" d="m160.22,0l-30.75.51,29.03,68.88c6.78-2.27,17.69-4.21,22-3.76-3.45,1.04-3.4.6-4.43,2.45,5.38-.5,9.15-3.65,11.39.55.49,4.59-13.35,9.31-23.6,13.49l1.92,4.56,24.11-10.75c-.52,1.02-.09.49-1.19,1.55l-21.35,12.95,17.86,42.38h34L160.22,0Z"/><path class="cls-1" d="m158.41,84.52c-1.61.78-2.96,1.54-3.87,2.26-3.14,2.48-6.51,5.39-11.2,5.38-.08-3.81,2.78-3.2,5.77-5.25-14.01,4.83-13.18,4.55-27.67,7.87l15.55-5.94c-6.87,1.85-14.24,4.39-21.41,6.12h31.67l13.1-5.84-1.94-4.6Z"/><path class="cls-1" d="m141.81,105.94c-4.91,3.31-10.03,7.52-14.8,10.47l.37-.93c2.92-7.38-4.81-5.75-12.7-3.35l8.72,20.69h34l-12.72-28.62-2.87,1.74Z"/><polygon class="cls-1" points="159.91 94.95 162.81 94.95 162.22 93.56 159.91 94.95"/><path class="cls-1" d="m157.49,82.34l-.19-.44c-.98.59-1.99,1.12-2.97,1.56,1.01-.31,2.09-.68,3.16-1.12Z"/></g></svg>